# xmcd
#
# Track frame offsets:
#	150
#	25280
#	40559
#	65161
#	86913
#	110383
#	152433
#	180517
#	195877
#	215012
#	243677
#	272341
#	304231
#	331903
#
# Disc length: 4764 seconds
# Revision: 0
# Processed by: cddbd v1.5.2PL0 Copyright (c) Steve Scherf et al.
# Submitted via: dBpowerAMP V12.0
#
DISCID=ba129a0e
DTITLE=Various Artist - Live
DYEAR=2016
DGENRE=Country
TTITLE0=Ryan Bingham - Sunrise
TTITLE1=Top Shelf Drug
TTITLE2=Depression
TTITLE3=Tell My Mother I Miss Her So
TTITLE4=Radio
TTITLE5=Bluebird
TTITLE6=My Diamond Is Too Rough
TTITLE7=Nobody Knows My Trouble
TTITLE8=The Weary Kind
TTITLE9=Hallelujah
TTITLE10=Hard Times
TTITLE11=Southside of Heaven
TTITLE12=Sunshine
TTITLE13=Bread and Water
EXTD=
EXTT0=
EXTT1=
EXTT2=
EXTT3=
EXTT4=
EXTT5=
EXTT6=
EXTT7=
EXTT8=
EXTT9=
EXTT10=
EXTT11=
EXTT12=
EXTT13=
PLAYORDER=
